<svg width="32" height="32" viewBox="0 0 32 32" fill="none" xmlns="http://www.w3.org/2000/svg">
<path d="M32 16C32 20.5714 30.4158 24.3809 27.2475 27.4286C24.1848 30.4762 20.4885 32 16.1584 32C13.9406 32 11.8284 31.5646 9.8218 30.6939C7.92081 29.932 6.23102 28.8435 4.75247 27.4286C3.27393 26.0136 2.11221 24.3809 1.26733 22.5306C0.422447 20.5714 0 18.449 0 16.1633C0 13.9864 0.422447 11.9184 1.26733 9.95918C2.11221 8 3.27393 6.31293 4.75247 4.89796C6.23102 3.37415 7.92081 2.17686 9.8218 1.30612C11.8284 0.435367 13.9406 0 16.1584 0C20.4885 0 24.1848 1.5238 27.2475 4.57142C30.4158 7.61904 32 11.4286 32 16Z" fill="#D51B2B"/>
</svg>
